<svg width="107" height="120" viewBox="0 0 107 120" fill="none" xmlns="http://www.w3.org/2000/svg">
<g clip-path="url(#clip0_3_64)">
<path d="M106.31 60.0107C106.31 53.0343 97.4906 46.4228 83.9689 42.3228C87.0893 28.6704 85.7024 17.8086 79.5916 14.3312C78.1831 13.5155 76.5363 13.1291 74.7377 13.1291V17.916C75.7345 17.916 76.5363 18.1092 77.208 18.4741C80.1551 20.1484 81.4335 26.5238 80.4368 34.7238C80.1984 36.7416 79.8083 38.8668 79.3316 41.0348C75.0844 40.0045 70.4472 39.2102 65.5716 38.695C62.6462 34.7238 59.6125 31.1175 56.5571 27.962C63.6213 21.4579 70.2521 17.8945 74.7594 17.8945V13.1076C68.8003 13.1076 60.9993 17.3149 53.1117 24.6134C45.224 17.3579 37.423 13.1935 31.4639 13.1935V17.9804C35.9495 17.9804 42.602 21.5223 49.6662 27.9835C46.6325 31.139 43.5988 34.7238 40.7168 38.695C35.8195 39.2102 31.1822 40.0045 26.935 41.0563C26.4366 38.9097 26.0683 36.8275 25.8082 34.8312C24.7898 26.6312 26.0466 20.2558 28.972 18.56C29.622 18.1736 30.4672 18.0018 31.4639 18.0018V13.2149C29.6437 13.2149 27.9968 13.6013 26.5667 14.417C20.4776 17.8945 19.1124 28.7348 22.2545 42.3442C8.7761 46.4657 0 53.0558 0 60.0107C0 66.9872 8.81944 73.5987 22.3411 77.6987C19.2207 91.351 20.6076 102.213 26.7184 105.69C28.1269 106.506 29.7737 106.892 31.594 106.892C37.553 106.892 45.354 102.685 53.2417 95.3866C61.1293 102.642 68.9303 106.807 74.8894 106.807C76.7096 106.807 78.3565 106.42 79.7867 105.604C85.8758 102.127 87.2409 91.2866 84.0989 77.6772C97.5339 73.5772 106.31 66.9657 106.31 60.0107ZM78.0965 45.6929C77.2947 48.462 76.2979 51.317 75.1711 54.172C74.2826 52.4547 73.3509 50.7374 72.3324 49.0202C71.3356 47.3029 70.2738 45.6285 69.212 43.9971C72.2891 44.4479 75.2578 45.006 78.0965 45.6929ZM68.1719 68.5542C66.4817 71.4521 64.7481 74.1997 62.9496 76.7542C59.7208 77.0332 56.4487 77.1835 53.155 77.1835C49.8829 77.1835 46.6108 77.0332 43.4038 76.7756C41.6052 74.2212 39.85 71.495 38.1598 68.6186C36.5129 65.8065 35.0177 62.9516 33.6526 60.0751C34.9961 57.1987 36.5129 54.3222 38.1381 51.5102C39.8283 48.6123 41.5619 45.8647 43.3604 43.3102C46.5892 43.0312 49.8613 42.8809 53.155 42.8809C56.4271 42.8809 59.6992 43.0312 62.9062 43.2887C64.7048 45.8432 66.46 48.5694 68.1502 51.4458C69.7971 54.2579 71.2923 57.1128 72.6574 59.9893C71.2923 62.8657 69.7971 65.7421 68.1719 68.5542ZM75.1711 65.7636C76.3412 68.64 77.338 71.5165 78.1615 74.3071C75.3228 74.994 72.3324 75.5736 69.2337 76.0243C70.2955 74.3715 71.3573 72.6756 72.3541 70.9369C73.3509 69.2196 74.2826 67.4809 75.1711 65.7636ZM53.1983 88.6678C51.1831 86.6071 49.1678 84.3102 47.1743 81.7987C49.1245 81.8845 51.1181 81.9489 53.1333 81.9489C55.1703 81.9489 57.1855 81.906 59.1574 81.7987C57.2072 84.3102 55.1919 86.6071 53.1983 88.6678ZM37.0763 76.0243C33.9993 75.5736 31.0306 75.0154 28.1919 74.3285C28.9936 71.5594 29.9904 68.7044 31.1172 65.8495C32.0057 67.5667 32.9375 69.284 33.9559 71.0013C34.9744 72.7186 36.0145 74.3929 37.0763 76.0243ZM53.09 31.3537C55.1052 33.4144 57.1205 35.7113 59.1141 38.2228C57.1638 38.1369 55.1703 38.0725 53.155 38.0725C51.1181 38.0725 49.1028 38.1154 47.1309 38.2228C49.0812 35.7113 51.0964 33.4144 53.09 31.3537ZM37.0547 43.9971C35.9929 45.65 34.931 47.3458 33.9343 49.0846C32.9375 50.8018 32.0057 52.5191 31.1172 54.2364C29.9471 51.3599 28.9503 48.4835 28.1269 45.6929C30.9656 45.0275 33.9559 44.4479 37.0547 43.9971ZM17.4439 70.8725C9.7729 67.6311 4.8106 63.3809 4.8106 60.0107C4.8106 56.6406 9.7729 52.3688 17.4439 49.149C19.3074 48.3547 21.3443 47.6463 23.4463 46.9809C24.6814 51.1882 26.3066 55.5673 28.3219 60.0537C26.3283 64.5186 24.7248 68.8762 23.5113 73.062C21.366 72.3966 19.3291 71.6667 17.4439 70.8725ZM29.102 101.547C26.1549 99.873 24.8765 93.4976 25.8732 85.2976C26.1116 83.2798 26.5017 81.1547 26.9784 78.9866C31.2256 80.017 35.8628 80.8112 40.7384 81.3264C43.6638 85.2976 46.6975 88.9039 49.7529 92.0594C42.6887 98.5636 36.0579 102.127 31.5506 102.127C30.5755 102.105 29.7521 101.912 29.102 101.547ZM80.5018 85.1903C81.5202 93.3903 80.2634 99.7657 77.338 101.461C76.6879 101.848 75.8428 102.02 74.846 102.02C70.3605 102.02 63.708 98.4777 56.6438 92.0165C59.6775 88.861 62.7112 85.2762 65.5932 81.305C70.4905 80.7898 75.1278 79.9955 79.375 78.9437C79.8734 81.1118 80.2634 83.194 80.5018 85.1903ZM88.8445 70.8725C86.9809 71.6667 84.944 72.3751 82.8421 73.0406C81.6069 68.8332 79.9817 64.4542 77.9664 59.9678C79.96 55.5029 81.5636 51.1453 82.7771 46.9594C84.9223 47.6249 86.9592 48.3547 88.8661 49.149C96.5371 52.3903 101.499 56.6406 101.499 60.0107C101.478 63.3809 96.5154 67.6526 88.8445 70.8725Z" fill="#81D8F7"/>
<path d="M53.1333 69.8207C58.6026 69.8207 63.0362 65.4286 63.0362 60.0107C63.0362 54.5929 58.6026 50.2008 53.1333 50.2008C47.6641 50.2008 43.2304 54.5929 43.2304 60.0107C43.2304 65.4286 47.6641 69.8207 53.1333 69.8207Z" fill="#81D8F7"/>
</g>
<defs>
<clipPath id="clip0_3_64">
<rect width="106.31" height="120" fill="white"/>
</clipPath>
</defs>
</svg>
