<svg width="107" height="94" viewBox="0 0 107 94" fill="none" xmlns="http://www.w3.org/2000/svg">
<path d="M106.31 47.0107C106.31 40.0343 97.4906 33.4228 83.9689 29.3228C87.0893 15.6704 85.7024 4.80865 79.5916 1.33116C78.1831 0.515458 76.5363 0.129071 74.7377 0.129071V4.91598C75.7345 4.91598 76.5363 5.10917 77.208 5.47409C80.1551 7.14844 81.4335 13.5238 80.4368 21.7238C80.1984 23.7416 79.8083 25.8668 79.3316 28.0348C75.0844 27.0045 70.4472 26.2102 65.5716 25.695C62.6462 21.7238 59.6125 18.1175 56.5571 14.962C63.6213 8.45786 70.2521 4.89451 74.7594 4.89451V0.107605C68.8003 0.107605 60.9993 4.31493 53.1117 11.6134C45.224 4.35787 37.423 0.193469 31.4639 0.193469V4.98038C35.9495 4.98038 42.602 8.52226 49.6662 14.9835C46.6325 18.139 43.5988 21.7238 40.7168 25.695C35.8195 26.2102 31.1822 27.0045 26.935 28.0563C26.4366 25.9097 26.0683 23.8275 25.8082 21.8312C24.7898 13.6312 26.0466 7.25577 28.972 5.55996C29.622 5.17357 30.4672 5.00184 31.4639 5.00184V0.214935C29.6437 0.214935 27.9968 0.601322 26.5667 1.41703C20.4776 4.89451 19.1124 15.7348 22.2545 29.3442C8.7761 33.4657 0 40.0558 0 47.0107C0 53.9872 8.81944 60.5987 22.3411 64.6987C19.2207 78.351 20.6076 89.2128 26.7184 92.6903C28.1269 93.506 29.7737 93.8924 31.594 93.8924C37.553 93.8924 45.354 89.6851 53.2417 82.3866C61.1293 89.6421 68.9303 93.8065 74.8894 93.8065C76.7096 93.8065 78.3565 93.4201 79.7867 92.6044C85.8758 89.1269 87.2409 78.2866 84.0989 64.6772C97.5339 60.5772 106.31 53.9657 106.31 47.0107ZM78.0965 32.6929C77.2947 35.462 76.2979 38.317 75.1711 41.172C74.2826 39.4547 73.3509 37.7374 72.3324 36.0202C71.3356 34.3029 70.2738 32.6285 69.212 30.9971C72.2891 31.4479 75.2578 32.006 78.0965 32.6929ZM68.1719 55.5542C66.4817 58.4521 64.7481 61.1997 62.9496 63.7542C59.7208 64.0332 56.4487 64.1835 53.155 64.1835C49.8829 64.1835 46.6108 64.0332 43.4038 63.7756C41.6052 61.2212 39.85 58.495 38.1598 55.6186C36.5129 52.8065 35.0177 49.9516 33.6526 47.0751C34.9961 44.1987 36.5129 41.3222 38.1381 38.5102C39.8283 35.6123 41.5619 32.8647 43.3604 30.3102C46.5892 30.0312 49.8613 29.8809 53.155 29.8809C56.4271 29.8809 59.6992 30.0312 62.9062 30.2887C64.7048 32.8432 66.46 35.5694 68.1502 38.4458C69.7971 41.2579 71.2923 44.1128 72.6574 46.9893C71.2923 49.8657 69.7971 52.7421 68.1719 55.5542ZM75.1711 52.7636C76.3412 55.64 77.338 58.5165 78.1615 61.3071C75.3228 61.994 72.3324 62.5736 69.2337 63.0243C70.2955 61.3715 71.3573 59.6756 72.3541 57.9369C73.3509 56.2196 74.2826 54.4809 75.1711 52.7636ZM53.1983 75.6678C51.1831 73.6071 49.1678 71.3102 47.1743 68.7987C49.1245 68.8845 51.1181 68.9489 53.1333 68.9489C55.1703 68.9489 57.1855 68.906 59.1574 68.7987C57.2072 71.3102 55.1919 73.6071 53.1983 75.6678ZM37.0763 63.0243C33.9993 62.5736 31.0306 62.0154 28.1919 61.3285C28.9936 58.5594 29.9904 55.7044 31.1172 52.8495C32.0057 54.5667 32.9375 56.284 33.9559 58.0013C34.9744 59.7186 36.0145 61.3929 37.0763 63.0243ZM53.09 18.3537C55.1052 20.4144 57.1205 22.7113 59.1141 25.2228C57.1638 25.1369 55.1703 25.0725 53.155 25.0725C51.1181 25.0725 49.1028 25.1154 47.1309 25.2228C49.0812 22.7113 51.0964 20.4144 53.09 18.3537ZM37.0547 30.9971C35.9929 32.65 34.931 34.3458 33.9343 36.0846C32.9375 37.8018 32.0057 39.5191 31.1172 41.2364C29.9471 38.3599 28.9503 35.4835 28.1269 32.6929C30.9656 32.0275 33.9559 31.4479 37.0547 30.9971ZM17.4439 57.8725C9.7729 54.6311 4.8106 50.3809 4.8106 47.0107C4.8106 43.6406 9.7729 39.3688 17.4439 36.149C19.3074 35.3547 21.3443 34.6463 23.4463 33.9809C24.6814 38.1882 26.3066 42.5673 28.3219 47.0537C26.3283 51.5186 24.7248 55.8762 23.5113 60.062C21.366 59.3966 19.3291 58.6667 17.4439 57.8725ZM29.102 88.5474C26.1549 86.873 24.8765 80.4976 25.8732 72.2976C26.1116 70.2798 26.5017 68.1547 26.9784 65.9866C31.2256 67.017 35.8628 67.8112 40.7384 68.3264C43.6638 72.2976 46.6975 75.9039 49.7529 79.0594C42.6887 85.5636 36.0579 89.1269 31.5506 89.1269C30.5755 89.1055 29.7521 88.9123 29.102 88.5474ZM80.5018 72.1903C81.5202 80.3903 80.2634 86.7657 77.338 88.4615C76.6879 88.8479 75.8428 89.0196 74.846 89.0196C70.3605 89.0196 63.708 85.4777 56.6438 79.0165C59.6775 75.861 62.7112 72.2762 65.5932 68.305C70.4905 67.7898 75.1278 66.9955 79.375 65.9437C79.8734 68.1118 80.2634 70.194 80.5018 72.1903ZM88.8445 57.8725C86.9809 58.6667 84.944 59.3751 82.8421 60.0406C81.6069 55.8332 79.9817 51.4542 77.9664 46.9678C79.96 42.5029 81.5636 38.1453 82.7771 33.9594C84.9223 34.6249 86.9592 35.3547 88.8661 36.149C96.5371 39.3903 101.499 43.6406 101.499 47.0107C101.478 50.3809 96.5154 54.6526 88.8445 57.8725Z" fill="#81D8F7"/>
</svg>
